<svg width="60" height="60" viewBox="0 0 60 60" fill="none" xmlns="http://www.w3.org/2000/svg" xmlns:xlink="http://www.w3.org/1999/xlink">
<g opacity="0.3">
<path d="M22.5,25C25.261,25 27.5,22.761 27.5,20C27.5,17.239 25.261,15 22.5,15C19.739,15 17.5,17.239 17.5,20C17.5,22.761 19.739,25 22.5,25Z" fill="#222222"/>
</g>
<g opacity="0.3">
<path d="M22.5,37.5C15.75,37.5 8,40.725 7.5,42.525L7.5,45L37.5,45L37.5,42.5C37,40.725 29.25,37.5 22.5,37.5Z" fill="#222222"/>
</g>
<path d="M41.675,32.825C45.1,35.15 47.5,38.3 47.5,42.5L47.5,50L57.5,50L57.5,42.5C57.5,37.05 48.575,33.825 41.675,32.825ZM37.5,30C43.025,30 47.5,25.525 47.5,20C47.5,14.475 43.025,10 37.5,10C36.325,10 35.225,10.25 34.175,10.6C36.326,13.261 37.5,16.578 37.5,20C37.5,23.422 36.326,26.739 34.175,29.4C35.225,29.75 36.325,30 37.5,30ZM22.5,30C28.025,30 32.5,25.525 32.5,20C32.5,14.475 28.025,10 22.5,10C16.975,10 12.5,14.475 12.5,20C12.5,25.525 16.975,30 22.5,30ZM22.5,15C25.25,15 27.5,17.25 27.5,20C27.5,22.75 25.25,25 22.5,25C19.75,25 17.5,22.75 17.5,20C17.5,17.25 19.75,15 22.5,15ZM22.5,32.5C15.825,32.5 2.5,35.85 2.5,42.5L2.5,50L42.5,50L42.5,42.5C42.5,35.85 29.175,32.5 22.5,32.5ZM37.5,45L7.5,45L7.5,42.525C8,40.725 15.75,37.5 22.5,37.5C29.25,37.5 37,40.725 37.5,42.5L37.5,45Z" fill="#222222"/>
</svg>
