<svg width="68" height="68" viewBox="0 0 68 68" fill="none" xmlns="http://www.w3.org/2000/svg" xmlns:xlink="http://www.w3.org/1999/xlink">
<path d="M60.667,0.666L7.333,0.666C3.667,0.666 0.7,3.666 0.7,7.333L0.667,67.333L14,53.999L60.667,53.999C64.333,53.999 67.333,50.999 67.333,47.333L67.333,7.333C67.333,3.666 64.333,0.666 60.667,0.666ZM60.667,47.333L11.233,47.333L9.267,49.299L7.333,51.233L7.333,7.333L60.667,7.333L60.667,47.333ZM30.667,33.999L37.333,33.999L37.333,40.666L30.667,40.666L30.667,33.999ZM30.667,13.999L37.333,13.999L37.333,27.333L30.667,27.333L30.667,13.999Z" fill="#222222"/>
</svg>
