<svg width="50" height="50" viewBox="0 0 50 50" fill="none" xmlns="http://www.w3.org/2000/svg" xmlns:xlink="http://www.w3.org/1999/xlink">
<path d="M21.679,0.062C9.724,0.062 0,9.786 0,21.741C0,33.695 9.724,43.419 21.679,43.419C25.333,43.419 28.926,42.552 31.961,40.88C32.204,41.172 32.473,41.442 32.766,41.685L38.96,47.879C39.532,48.523 40.229,49.042 41.009,49.407C41.789,49.771 42.636,49.972 43.496,49.997C44.357,50.023 45.214,49.872 46.014,49.554C46.814,49.236 47.541,48.758 48.15,48.15C48.758,47.541 49.236,46.814 49.554,46.014C49.872,45.214 50.023,44.357 49.997,43.496C49.972,42.636 49.771,41.789 49.407,41.009C49.042,40.229 48.523,39.532 47.879,38.96L41.685,32.766C41.383,32.464 41.051,32.194 40.694,31.961C42.366,28.926 43.419,25.395 43.419,21.679C43.419,9.724 33.695,0 21.741,0L21.679,0.062ZM21.679,6.256C30.288,6.256 37.164,13.131 37.164,21.741C37.164,25.829 35.677,29.607 33.076,32.394C33.014,32.456 32.952,32.518 32.89,32.58C32.597,32.823 32.328,33.093 32.085,33.385C29.359,35.863 25.643,37.287 21.617,37.287C13.007,37.287 6.132,30.412 6.132,21.803C6.132,13.193 13.007,6.318 21.617,6.318L21.679,6.256Z" fill="#4484CE"/>
</svg>
