<svg width="32" height="32" viewBox="0 0 32 32" fill="none" xmlns="http://www.w3.org/2000/svg" xmlns:xlink="http://www.w3.org/1999/xlink">
<path d="M11.96,13.194C12.039,12.672 12.213,12.213 12.435,11.817C12.657,11.421 12.973,11.089 13.369,10.835C13.749,10.598 14.224,10.487 14.81,10.471C15.174,10.487 15.507,10.55 15.807,10.677C16.124,10.819 16.409,11.009 16.631,11.247C16.852,11.484 17.027,11.769 17.169,12.086C17.312,12.403 17.375,12.751 17.391,13.099L20.225,13.099C20.193,12.355 20.051,11.674 19.782,11.057C19.512,10.439 19.148,9.901 18.673,9.458C18.198,9.014 17.628,8.666 16.963,8.413C16.298,8.159 15.57,8.049 14.762,8.049C13.733,8.049 12.831,8.223 12.071,8.587C11.311,8.951 10.677,9.426 10.171,10.044C9.664,10.661 9.284,11.374 9.047,12.197C8.809,13.02 8.667,13.875 8.667,14.794L8.667,15.221C8.667,16.139 8.793,16.994 9.031,17.818C9.268,18.641 9.648,19.354 10.155,19.955C10.662,20.557 11.295,21.048 12.055,21.396C12.815,21.744 13.717,21.934 14.747,21.934C15.491,21.934 16.187,21.808 16.837,21.57C17.486,21.333 18.056,21 18.547,20.573C19.037,20.145 19.433,19.654 19.718,19.084C20.003,18.514 20.177,17.913 20.193,17.264L17.359,17.264C17.343,17.596 17.264,17.897 17.122,18.182C16.979,18.467 16.789,18.704 16.552,18.91C16.314,19.116 16.045,19.274 15.728,19.385C15.427,19.496 15.111,19.528 14.778,19.543C14.208,19.528 13.733,19.417 13.369,19.179C12.973,18.926 12.657,18.594 12.435,18.198C12.213,17.802 12.039,17.327 11.96,16.804C11.881,16.282 11.833,15.744 11.833,15.221L11.833,14.794C11.833,14.239 11.881,13.717 11.96,13.194ZM15,-0.834C6.26,-0.834 -0.833,6.259 -0.833,14.999C-0.833,23.739 6.26,30.833 15,30.833C23.74,30.833 30.833,23.739 30.833,14.999C30.833,6.259 23.74,-0.834 15,-0.834ZM15,27.666C8.017,27.666 2.333,21.982 2.333,14.999C2.333,8.017 8.017,2.333 15,2.333C21.982,2.333 27.667,8.017 27.667,14.999C27.667,21.982 21.982,27.666 15,27.666Z" fill="#4484CE"/>
</svg>
