<svg width="32" height="32" viewBox="0 0 32 32" fill="none" xmlns="http://www.w3.org/2000/svg" xmlns:xlink="http://www.w3.org/1999/xlink">
<path d="M11.96,13.195C12.039,12.673 12.213,12.213 12.435,11.818C12.657,11.422 12.973,11.089 13.369,10.836C13.749,10.598 14.224,10.488 14.81,10.472C15.174,10.488 15.507,10.551 15.808,10.678C16.124,10.82 16.409,11.01 16.631,11.248C16.853,11.485 17.027,11.77 17.169,12.087C17.312,12.403 17.375,12.752 17.391,13.1L20.225,13.1C20.193,12.356 20.051,11.675 19.782,11.058C19.512,10.44 19.148,9.902 18.673,9.458C18.198,9.015 17.628,8.667 16.963,8.413C16.298,8.16 15.57,8.049 14.763,8.049C13.733,8.049 12.831,8.223 12.071,8.588C11.311,8.952 10.678,9.427 10.171,10.044C9.664,10.662 9.284,11.374 9.047,12.198C8.809,13.021 8.667,13.876 8.667,14.794L8.667,15.222C8.667,16.14 8.793,16.995 9.031,17.818C9.268,18.642 9.648,19.354 10.155,19.956C10.662,20.557 11.295,21.048 12.055,21.397C12.815,21.745 13.718,21.935 14.747,21.935C15.491,21.935 16.188,21.808 16.837,21.571C17.486,21.333 18.056,21.001 18.547,20.573C19.038,20.146 19.433,19.655 19.718,19.085C20.003,18.515 20.177,17.913 20.193,17.264L17.359,17.264C17.343,17.597 17.264,17.898 17.122,18.183C16.979,18.468 16.789,18.705 16.552,18.911C16.314,19.117 16.045,19.275 15.728,19.386C15.428,19.497 15.111,19.528 14.778,19.544C14.208,19.528 13.733,19.417 13.369,19.18C12.973,18.927 12.657,18.594 12.435,18.198C12.213,17.803 12.039,17.328 11.96,16.805C11.881,16.283 11.833,15.744 11.833,15.222L11.833,14.794C11.833,14.24 11.881,13.718 11.96,13.195ZM15,-0.833C6.26,-0.833 -0.833,6.26 -0.833,15C-0.833,23.74 6.26,30.833 15,30.833C23.74,30.833 30.833,23.74 30.833,15C30.833,6.26 23.74,-0.833 15,-0.833ZM15,27.667C8.018,27.667 2.333,21.982 2.333,15C2.333,8.018 8.018,2.333 15,2.333C21.982,2.333 27.667,8.018 27.667,15C27.667,21.982 21.982,27.667 15,27.667Z" fill="#4484CE"/>
</svg>
