<svg width="68" height="68" viewBox="0 0 68 68" fill="none" xmlns="http://www.w3.org/2000/svg" xmlns:xlink="http://www.w3.org/1999/xlink">
<path d="M60.667,0.667L7.333,0.667C3.667,0.667 0.7,3.667 0.7,7.334L0.667,67.334L14,54L60.667,54C64.333,54 67.333,51 67.333,47.334L67.333,7.334C67.333,3.667 64.333,0.667 60.667,0.667ZM60.667,47.334L11.233,47.334L9.267,49.3L7.333,51.234L7.333,7.334L60.667,7.334L60.667,47.334ZM30.667,34L37.333,34L37.333,40.667L30.667,40.667L30.667,34ZM30.667,14L37.333,14L37.333,27.334L30.667,27.334L30.667,14Z" fill="#222222"/>
</svg>
